<svg xmlns="http://www.w3.org/2000/svg" width="760" height="188" viewBox="0 0 1211.321 300" role="img" aria-label="二叉树形态选项 A B C D" style="max-width:100%;height:auto;">
  <title>二叉树形态选项 A B C D</title>
  <defs>
    <marker id="arrow" markerWidth="5.66" markerHeight="4.245" refX="5.377" refY="2.123" orient="auto" markerUnits="strokeWidth">
      <path d="M0,0 L5.66,2.123 L0,4.245 Z" fill="#111" />
    </marker>
    <style>
      .bg { fill:#fff; }
      .edge { fill:none; stroke:#111; stroke-width:2.264; stroke-linecap:round; stroke-linejoin:round; }
      .thin { stroke-width:1.769; }
      .dash { stroke-dasharray:6.368 5.66; }
      .node { fill:#fff; stroke:#111; stroke-width:2.264; }
      .box { fill:#fff; stroke:#111; stroke-width:1.84; }
      .cell { stroke:#111; stroke-width:1.627; }
      .router { fill:#050505; stroke:#111; stroke-width:2.264; }
      .light { stroke:#fff; stroke-width:2.123; }
      .label { fill:#111; font-family:serif; text-anchor:middle; dominant-baseline:middle; }
      .italic { font-style:italic; }
      .bold { font-weight:700; }
      .left { text-anchor:start; }
      .right { text-anchor:end; }
    </style>
  </defs>
  <rect class="bg" width="100%" height="100%" />  <line class="edge" x1="142.075" y1="63.962" x2="109.104" y2="98.774" />
  <line class="edge" x1="169.245" y1="63.962" x2="202.217" y2="98.774" />
  <line class="edge" x1="86.675" y1="130.896" x2="72.524" y2="159.198" />
  <line class="edge" x1="104.363" y1="130.896" x2="118.514" y2="159.198" />
  <line class="edge" x1="206.958" y1="130.896" x2="192.807" y2="159.198" />
  <line class="edge" x1="224.646" y1="130.896" x2="238.797" y2="159.198" />
  <line class="edge" x1="55.259" y1="194.788" x2="43.797" y2="219.127" />
  <line class="edge" x1="126.226" y1="196.698" x2="124.953" y2="217.217" />
  <line class="edge" x1="181.627" y1="196.557" x2="179.222" y2="217.358" />
  <circle class="node" cx="155.66" cy="49.528" r="19.811" />
  <circle class="node" cx="95.519" cy="113.208" r="19.811" />
  <circle class="node" cx="215.802" cy="113.208" r="19.811" />
  <circle class="node" cx="63.679" cy="176.887" r="19.811" />
  <circle class="node" cx="127.358" cy="176.887" r="19.811" />
  <circle class="node" cx="183.962" cy="176.887" r="19.811" />
  <circle class="node" cx="247.642" cy="176.887" r="19.811" />
  <circle class="node" cx="35.377" cy="237.028" r="19.811" />
  <circle class="node" cx="123.821" cy="237.028" r="19.811" />
  <circle class="node" cx="176.887" cy="237.028" r="19.811" />
  <text class="label" x="152.123" y="270.283" font-size="28.302">A</text>
  <line class="edge" x1="439.245" y1="63.962" x2="406.274" y2="98.774" />
  <line class="edge" x1="466.415" y1="63.962" x2="499.387" y2="98.774" />
  <line class="edge" x1="383.844" y1="130.896" x2="369.693" y2="159.198" />
  <line class="edge" x1="401.533" y1="130.896" x2="415.684" y2="159.198" />
  <line class="edge" x1="504.127" y1="130.896" x2="489.976" y2="159.198" />
  <line class="edge" x1="521.816" y1="130.896" x2="535.967" y2="159.198" />
  <line class="edge" x1="352.429" y1="194.788" x2="340.967" y2="219.127" />
  <line class="edge" x1="423.396" y1="196.698" x2="422.123" y2="217.217" />
  <line class="edge" x1="490.401" y1="194.363" x2="503.703" y2="219.552" />
  <line class="edge" x1="553.231" y1="194.788" x2="564.693" y2="219.127" />
  <circle class="node" cx="452.83" cy="49.528" r="19.811" />
  <circle class="node" cx="392.689" cy="113.208" r="19.811" />
  <circle class="node" cx="512.972" cy="113.208" r="19.811" />
  <circle class="node" cx="360.849" cy="176.887" r="19.811" />
  <circle class="node" cx="424.528" cy="176.887" r="19.811" />
  <circle class="node" cx="481.132" cy="176.887" r="19.811" />
  <circle class="node" cx="544.811" cy="176.887" r="19.811" />
  <circle class="node" cx="332.547" cy="237.028" r="19.811" />
  <circle class="node" cx="420.991" cy="237.028" r="19.811" />
  <circle class="node" cx="512.972" cy="237.028" r="19.811" />
  <circle class="node" cx="573.113" cy="237.028" r="19.811" />
  <text class="label" x="449.292" y="270.283" font-size="28.302">B</text>
  <line class="edge" x1="736.415" y1="63.962" x2="703.443" y2="98.774" />
  <line class="edge" x1="763.585" y1="63.962" x2="796.557" y2="98.774" />
  <line class="edge" x1="681.014" y1="130.896" x2="666.863" y2="159.198" />
  <line class="edge" x1="698.703" y1="130.896" x2="712.854" y2="159.198" />
  <line class="edge" x1="801.297" y1="130.896" x2="787.146" y2="159.198" />
  <line class="edge" x1="818.986" y1="130.896" x2="833.137" y2="159.198" />
  <line class="edge" x1="714.127" y1="195.212" x2="704.505" y2="218.703" />
  <line class="edge" x1="787.571" y1="194.363" x2="800.873" y2="219.552" />
  <circle class="node" cx="750" cy="49.528" r="19.811" />
  <circle class="node" cx="689.858" cy="113.208" r="19.811" />
  <circle class="node" cx="810.142" cy="113.208" r="19.811" />
  <circle class="node" cx="658.019" cy="176.887" r="19.811" />
  <circle class="node" cx="721.698" cy="176.887" r="19.811" />
  <circle class="node" cx="778.302" cy="176.887" r="19.811" />
  <circle class="node" cx="841.981" cy="176.887" r="19.811" />
  <circle class="node" cx="696.934" cy="237.028" r="19.811" />
  <circle class="node" cx="810.142" cy="237.028" r="19.811" />
  <text class="label" x="746.462" y="270.283" font-size="28.302">C</text>
  <line class="edge" x1="1033.585" y1="63.962" x2="1000.613" y2="98.774" />
  <line class="edge" x1="1060.755" y1="63.962" x2="1093.726" y2="98.774" />
  <line class="edge" x1="978.184" y1="130.896" x2="964.033" y2="159.198" />
  <line class="edge" x1="995.873" y1="130.896" x2="1010.024" y2="159.198" />
  <line class="edge" x1="1098.467" y1="130.896" x2="1084.316" y2="159.198" />
  <line class="edge" x1="1116.156" y1="130.896" x2="1130.307" y2="159.198" />
  <line class="edge" x1="946.769" y1="194.788" x2="935.307" y2="219.127" />
  <line class="edge" x1="1075.472" y1="196.698" x2="1075.472" y2="217.217" />
  <line class="edge" x1="1139.151" y1="196.698" x2="1139.151" y2="217.217" />
  <circle class="node" cx="1047.17" cy="49.528" r="19.811" />
  <circle class="node" cx="987.028" cy="113.208" r="19.811" />
  <circle class="node" cx="1107.311" cy="113.208" r="19.811" />
  <circle class="node" cx="955.189" cy="176.887" r="19.811" />
  <circle class="node" cx="1018.868" cy="176.887" r="19.811" />
  <circle class="node" cx="1075.472" cy="176.887" r="19.811" />
  <circle class="node" cx="1139.151" cy="176.887" r="19.811" />
  <circle class="node" cx="926.887" cy="237.028" r="19.811" />
  <circle class="node" cx="1075.472" cy="237.028" r="19.811" />
  <circle class="node" cx="1139.151" cy="237.028" r="19.811" />
  <text class="label" x="1043.632" y="270.283" font-size="28.302">D</text>
</svg>
