<svg xmlns="http://www.w3.org/2000/svg" width="441.176" height="300" viewBox="0 0 441.176 300">
  <defs>
    <marker id="arrow" markerWidth="4.963" markerHeight="4.963" refX="4.301" refY="2.482" orient="auto" markerUnits="strokeWidth">
      <path d="M0,0 L4.412,2.482 L0,4.963 Z" fill="#111" />
    </marker>
    <style>
      .box { fill:#fff; stroke:#111; stroke-width:1.324; }
      .thin { stroke:#111; stroke-width:1.213; fill:none; }
      .edge { stroke:#111; stroke-width:1.213; fill:none; stroke-linecap:square; stroke-linejoin:miter; marker-end:url(#arrow); }
      .line { stroke:#111; stroke-width:1.213; fill:none; stroke-linecap:square; stroke-linejoin:miter; }
      .caret { stroke:#111; stroke-width:1.324; fill:none; stroke-linecap:square; stroke-linejoin:miter; }
      text { font-family:"Times New Roman", "Noto Serif SC", serif; fill:#111; dominant-baseline:middle; text-anchor:middle; }
      .idx { font-size:15.441px; }
      .letter { font-size:17.096px; font-style:italic; }
      .val { font-size:15.441px; }
    </style>
  </defs>

  <rect width="441.176" height="300" fill="#fff" />


  <g id="vertex-table">
    <rect class="box" x="50.184" y="50.184" width="39.706" height="193.015" />
    <line class="thin" x1="73.897" y1="50.184" x2="73.897" y2="243.199" />
    <line class="thin" x1="50.184" y1="88.787" x2="89.89" y2="88.787" />
    <line class="thin" x1="50.184" y1="127.39" x2="89.89" y2="127.39" />
    <line class="thin" x1="50.184" y1="165.993" x2="89.89" y2="165.993" />
    <line class="thin" x1="50.184" y1="204.596" x2="89.89" y2="204.596" />
    <text class="idx" x="39.706" y="69.485">0</text>
    <text class="idx" x="39.706" y="108.088">1</text>
    <text class="idx" x="39.706" y="146.691">2</text>
    <text class="idx" x="39.706" y="185.294">3</text>
    <text class="idx" x="39.706" y="223.897">4</text>
    <text class="letter" x="62.316" y="69.485">a</text>
    <text class="letter" x="62.316" y="108.088">b</text>
    <text class="letter" x="62.316" y="146.691">c</text>
    <text class="letter" x="62.316" y="185.294">d</text>
    <text class="letter" x="62.316" y="223.897">e</text>
  </g>


  <g id="records">

    <g id="n0">
      <rect class="box" x="146.691" y="55.699" width="93.75" height="28.676" />
      <line class="thin" x1="165.441" y1="55.699" x2="165.441" y2="84.375" />
      <line class="thin" x1="184.191" y1="55.699" x2="184.191" y2="84.375" />
      <line class="thin" x1="202.941" y1="55.699" x2="202.941" y2="84.375" />
      <line class="thin" x1="221.691" y1="55.699" x2="221.691" y2="84.375" />
    </g>
    <g id="n1">
      <rect class="box" x="146.691" y="93.199" width="93.75" height="28.676" />
      <line class="thin" x1="165.441" y1="93.199" x2="165.441" y2="121.875" />
      <line class="thin" x1="184.191" y1="93.199" x2="184.191" y2="121.875" />
      <line class="thin" x1="202.941" y1="93.199" x2="202.941" y2="121.875" />
      <line class="thin" x1="221.691" y1="93.199" x2="221.691" y2="121.875" />
    </g>
    <g id="n2">
      <rect class="box" x="146.691" y="131.801" width="93.75" height="28.676" />
      <line class="thin" x1="165.441" y1="131.801" x2="165.441" y2="160.478" />
      <line class="thin" x1="184.191" y1="131.801" x2="184.191" y2="160.478" />
      <line class="thin" x1="202.941" y1="131.801" x2="202.941" y2="160.478" />
      <line class="thin" x1="221.691" y1="131.801" x2="221.691" y2="160.478" />
    </g>
    <g id="n3">
      <rect class="box" x="146.691" y="169.853" width="93.75" height="28.676" />
      <line class="thin" x1="165.441" y1="169.853" x2="165.441" y2="198.529" />
      <line class="thin" x1="184.191" y1="169.853" x2="184.191" y2="198.529" />
      <line class="thin" x1="202.941" y1="169.853" x2="202.941" y2="198.529" />
      <line class="thin" x1="221.691" y1="169.853" x2="221.691" y2="198.529" />
    </g>
    <g id="n4">
      <rect class="box" x="146.691" y="208.456" width="93.75" height="28.676" />
      <line class="thin" x1="165.441" y1="208.456" x2="165.441" y2="237.132" />
      <line class="thin" x1="184.191" y1="208.456" x2="184.191" y2="237.132" />
      <line class="thin" x1="202.941" y1="208.456" x2="202.941" y2="237.132" />
      <line class="thin" x1="221.691" y1="208.456" x2="221.691" y2="237.132" />
    </g>


    <g id="r0">
      <rect class="box" x="295.037" y="55.699" width="93.75" height="28.676" />
      <line class="thin" x1="313.787" y1="55.699" x2="313.787" y2="84.375" />
      <line class="thin" x1="332.537" y1="55.699" x2="332.537" y2="84.375" />
      <line class="thin" x1="351.287" y1="55.699" x2="351.287" y2="84.375" />
      <line class="thin" x1="370.037" y1="55.699" x2="370.037" y2="84.375" />
    </g>
    <g id="r1">
      <rect class="box" x="293.934" y="208.456" width="93.75" height="28.676" />
      <line class="thin" x1="312.684" y1="208.456" x2="312.684" y2="237.132" />
      <line class="thin" x1="331.434" y1="208.456" x2="331.434" y2="237.132" />
      <line class="thin" x1="350.184" y1="208.456" x2="350.184" y2="237.132" />
      <line class="thin" x1="368.934" y1="208.456" x2="368.934" y2="237.132" />
    </g>
  </g>


  <g id="links">

    <path class="edge" d="M88.235 69.485 H146.691" />
    <path class="edge" d="M88.235 108.088 H146.691" />
    <path class="edge" d="M88.235 146.691 H146.691" />
    <path class="edge" d="M88.235 185.294 H146.691" />
    <path class="edge" d="M88.235 223.897 H146.691" />


    <path class="edge" d="M194.118 55.699 V31.985 H343.015 V55.699" />


    <path class="edge" d="M414.154 70.588 H388.787" />
    <path class="edge" d="M380.515 70.588 V109.743 H240.441" />
    <path class="edge" d="M341.912 70.588 V146.14 H240.441" />
    <path class="edge" d="M259.743 70.037 H240.441" />
    <path class="edge" d="M259.743 70.037 V88.235 H194.118 V93.199" />


    <path class="edge" d="M193.015 146.14 V169.853" />
    <path class="edge" d="M259.191 165.441 V183.64 H240.441" />
    <path class="edge" d="M230.515 184.191 V208.456" />
    <path class="edge" d="M193.015 184.191 V208.456" />


    <path class="edge" d="M193.015 223.897 V260.294 H341.912 V237.132" />
    <path class="edge" d="M194.669 203.493 H122.978 V274.081 H379.412 V237.132" />


    <path class="edge" d="M387.684 222.794 H412.5 V70.588 H388.787" />
  </g>


  <g id="labels">
    <text class="val" x="174.816" y="70.037">0</text>
    <text class="val" x="212.868" y="70.037">1</text>
    <path class="caret" d="M227.206 73.346 L231.618 66.728 L236.029 73.346" />

    <text class="val" x="174.816" y="107.537">1</text>
    <text class="val" x="212.868" y="107.537">3</text>
    <path class="caret" d="M227.206 110.846 L231.618 104.228 L236.029 110.846" />

    <text class="val" x="174.816" y="146.14">2</text>
    <text class="val" x="212.868" y="146.14">0</text>
    <path class="caret" d="M227.206 149.449 L231.618 142.831 L236.029 149.449" />

    <text class="val" x="174.816" y="184.191">3</text>
    <text class="val" x="212.868" y="184.191">2</text>

    <text class="val" x="174.816" y="222.794">4</text>
    <text class="val" x="212.868" y="222.794">2</text>
    <path class="caret" d="M227.206 226.103 L231.618 219.485 L236.029 226.103" />

    <text class="val" x="323.162" y="70.037">0</text>
    <text class="val" x="360.662" y="70.037">3</text>

    <text class="val" x="322.61" y="222.794">4</text>
    <path class="caret" d="M336.949 226.103 L341.36 219.485 L345.772 226.103" />
    <text class="val" x="360.11" y="222.794">3</text>
  </g>
</svg>
