<svg xmlns="http://www.w3.org/2000/svg" width="760" height="209" viewBox="0 0 828 228" style="max-width:100%;height:auto;">
  <rect width="100%" height="100%" fill="#fff"/>

  <defs>
    <marker id="arrow" markerWidth="9" markerHeight="7" refX="8.4" refY="3.5" orient="auto" markerUnits="strokeWidth">
      <path d="M0,0 L9,3.5 L0,7 Z" fill="#111"/>
    </marker>
    <pattern id="shade" x="0" y="0" width="6" height="6" patternUnits="userSpaceOnUse">
      <rect width="6" height="6" fill="#eeeeee"/>
      <circle cx="1.4" cy="1.4" r="0.75" fill="#b9b9b9"/>
      <circle cx="4.4" cy="4.4" r="0.75" fill="#b9b9b9"/>
    </pattern>
  </defs>


  <style>
    .box { fill: #fff; stroke: #111; stroke-width: 2.6; shape-rendering: geometricPrecision; }
    .cell-line { stroke: #111; stroke-width: 2.4; shape-rendering: geometricPrecision; }
    .arrow { fill: none; stroke: #111; stroke-width: 2.4; stroke-linecap: square; stroke-linejoin: miter; marker-end: url(#arrow); }
    .text { fill: #111; font-family: "Times New Roman", "Noto Serif", serif; font-size: 31px; dominant-baseline: middle; text-anchor: middle; }
    .italic { font-style: italic; }
    .label { fill: #111; font-family: "Courier New", "Times New Roman", serif; font-size: 30px; text-anchor: start; dominant-baseline: middle; }
    .head { fill: #111; font-family: "Times New Roman", "Noto Serif", serif; font-size: 28px; font-weight: 600; text-anchor: start; dominant-baseline: middle; letter-spacing: 0.5px; }
    .small-italic { fill: #111; font-family: "Times New Roman", "Noto Serif", serif; font-size: 31px; font-style: italic; text-anchor: middle; dominant-baseline: middle; }
  </style>

  <g>
    <text class="head" x="121" y="72">HEAD</text>
    <polyline class="arrow" points="97,55 97,119"/>
    <rect x="58" y="121" width="120" height="55" fill="#fff"/>
    <rect class="box" style="fill:none" x="58" y="121" width="120" height="55"/>
    <line class="cell-line" x1="134" y1="121" x2="134" y2="176"/>
    <line class="arrow" x1="178" y1="149" x2="253" y2="149"/>
    <rect x="257" y="121" width="120" height="55" fill="#fff"/>
    <rect class="box" style="fill:none" x="257" y="121" width="120" height="55"/>
    <line class="cell-line" x1="333" y1="121" x2="333" y2="176"/>
    <text class="text" style="font-size:31px" x="295.0" y="149.5">21</text>
    <line class="arrow" x1="377" y1="149" x2="453" y2="149"/>
    <rect x="457" y="121" width="120" height="55" fill="#fff"/>
    <rect class="box" style="fill:none" x="457" y="121" width="120" height="55"/>
    <line class="cell-line" x1="533" y1="121" x2="533" y2="176"/>
    <text class="text" style="font-size:31px" x="495.0" y="149.5">-15</text>
    <line class="arrow" x1="577" y1="149" x2="653" y2="149"/>
    <rect x="657" y="121" width="120" height="55" fill="#fff"/>
    <rect class="box" style="fill:none" x="657" y="121" width="120" height="55"/>
    <line class="cell-line" x1="733" y1="121" x2="733" y2="176"/>
    <text class="text" style="font-size:31px" x="695.0" y="149.5">-7</text>
    <text class="text" style="font-size:31px" x="755.0" y="149.5">Λ</text>
  </g>
</svg>
