<svg xmlns="http://www.w3.org/2000/svg" width="760" height="135" viewBox="0 0 1304 232" style="max-width:100%;height:auto;">
  <rect width="100%" height="100%" fill="#fff"/>

  <defs>
    <marker id="arrow" markerWidth="9" markerHeight="7" refX="8.4" refY="3.5" orient="auto" markerUnits="strokeWidth">
      <path d="M0,0 L9,3.5 L0,7 Z" fill="#111"/>
    </marker>
    <pattern id="shade" x="0" y="0" width="6" height="6" patternUnits="userSpaceOnUse">
      <rect width="6" height="6" fill="#eeeeee"/>
      <circle cx="1.4" cy="1.4" r="0.75" fill="#b9b9b9"/>
      <circle cx="4.4" cy="4.4" r="0.75" fill="#b9b9b9"/>
    </pattern>
  </defs>


  <style>
    .box { fill: #fff; stroke: #111; stroke-width: 2.6; shape-rendering: geometricPrecision; }
    .cell-line { stroke: #111; stroke-width: 2.4; shape-rendering: geometricPrecision; }
    .arrow { fill: none; stroke: #111; stroke-width: 2.4; stroke-linecap: square; stroke-linejoin: miter; marker-end: url(#arrow); }
    .text { fill: #111; font-family: "Times New Roman", "Noto Serif", serif; font-size: 31px; dominant-baseline: middle; text-anchor: middle; }
    .italic { font-style: italic; }
    .label { fill: #111; font-family: "Courier New", "Times New Roman", serif; font-size: 30px; text-anchor: start; dominant-baseline: middle; }
    .head { fill: #111; font-family: "Times New Roman", "Noto Serif", serif; font-size: 28px; font-weight: 600; text-anchor: start; dominant-baseline: middle; letter-spacing: 0.5px; }
    .small-italic { fill: #111; font-family: "Times New Roman", "Noto Serif", serif; font-size: 31px; font-style: italic; text-anchor: middle; dominant-baseline: middle; }
  </style>

  <g>
    <text class="head" x="121" y="74">HEAD</text>
    <polyline class="arrow" points="100,55 100,124"/>
    <rect x="58" y="126" width="129" height="58" fill="#fff"/>
    <rect class="box" style="fill:none" x="58" y="126" width="129" height="58"/>
    <line class="cell-line" x1="139" y1="126" x2="139" y2="184"/>
    <line class="arrow" x1="187" y1="155" x2="269" y2="155"/>
    <rect x="273" y="126" width="127" height="58" fill="#fff"/>
    <rect class="box" style="fill:none" x="273" y="126" width="127" height="58"/>
    <line class="cell-line" x1="354" y1="126" x2="354" y2="184"/>
    <text class="text" style="font-size:31px" x="313.5" y="156.0">21</text>
    <line class="arrow" x1="400" y1="155" x2="485" y2="155"/>
    <rect x="489" y="126" width="127" height="58" fill="#fff"/>
    <rect class="box" style="fill:none" x="489" y="126" width="127" height="58"/>
    <line class="cell-line" x1="570" y1="126" x2="570" y2="184"/>
    <text class="text" style="font-size:31px" x="529.5" y="156.0">-15</text>
    <line class="arrow" x1="616" y1="155" x2="700" y2="155"/>
    <rect x="704" y="126" width="127" height="58" fill="#fff"/>
    <rect class="box" style="fill:none" x="704" y="126" width="127" height="58"/>
    <line class="cell-line" x1="785" y1="126" x2="785" y2="184"/>
    <text class="text" style="font-size:31px" x="744.5" y="156.0">-15</text>
    <line class="arrow" x1="831" y1="155" x2="916" y2="155"/>
    <rect x="920" y="126" width="127" height="58" fill="#fff"/>
    <rect class="box" style="fill:none" x="920" y="126" width="127" height="58"/>
    <line class="cell-line" x1="1001" y1="126" x2="1001" y2="184"/>
    <text class="text" style="font-size:31px" x="960.5" y="156.0">-7</text>
    <line class="arrow" x1="1047" y1="155" x2="1132" y2="155"/>
    <rect x="1136" y="126" width="127" height="58" fill="#fff"/>
    <rect class="box" style="fill:none" x="1136" y="126" width="127" height="58"/>
    <line class="cell-line" x1="1217" y1="126" x2="1217" y2="184"/>
    <text class="text" style="font-size:31px" x="1176.5" y="156.0">15</text>
    <text class="text" style="font-size:31px" x="1240.0" y="156.0">Λ</text>
  </g>
</svg>
