<svg xmlns="http://www.w3.org/2000/svg" width="707" height="300" viewBox="0 0 707.143 300" role="img" aria-label="B 树结点 45" style="max-width:100%;height:auto;">
  <title>B 树结点 45</title>
  <defs>
    <marker id="arrow" markerWidth="5.357" markerHeight="4.018" refX="5.089" refY="2.009" orient="auto" markerUnits="strokeWidth">
      <path d="M0,0 L5.357,2.009 L0,4.018 Z" fill="#111" />
    </marker>
    <style>
      .bg { fill:#fff; }
      .edge { fill:none; stroke:#111; stroke-width:2.143; stroke-linecap:round; stroke-linejoin:round; }
      .thin { stroke-width:1.674; }
      .dash { stroke-dasharray:6.027 5.357; }
      .node { fill:#fff; stroke:#111; stroke-width:2.143; }
      .box { fill:#fff; stroke:#111; stroke-width:1.741; }
      .cell { stroke:#111; stroke-width:1.54; }
      .router { fill:#050505; stroke:#111; stroke-width:2.143; }
      .light { stroke:#fff; stroke-width:2.009; }
      .label { fill:#111; font-family:serif; text-anchor:middle; dominant-baseline:middle; }
      .italic { font-style:italic; }
      .bold { font-weight:700; }
      .left { text-anchor:start; }
      .right { text-anchor:end; }
    </style>
  </defs>
  <rect class="bg" width="100%" height="100%" />  <rect class="box" x="298.661" y="38.839" width="100.446" height="41.518" />
  <text class="label" x="348.884" y="59.598" font-size="24.107">45</text>
  <rect class="box" x="116.518" y="137.946" width="100.446" height="41.518" />
  <text class="label" x="150" y="158.705" font-size="22.768">17</text>
  <text class="label" x="184.821" y="158.705" font-size="22.768">35</text>
  <rect class="box" x="480.804" y="137.946" width="100.446" height="41.518" />
  <text class="label" x="515.625" y="158.705" font-size="22.768">55</text>
  <text class="label" x="550.446" y="158.705" font-size="22.768">65</text>
  <line class="edge" x1="314.732" y1="80.357" x2="164.732" y2="137.946" />
  <line class="edge" x1="381.696" y1="80.357" x2="531.696" y2="137.946" />
  <rect class="box" x="40.179" y="225" width="69.643" height="41.518" />
  <text class="label" x="75" y="245.759" font-size="22.768">10</text>
  <rect class="box" x="131.25" y="225" width="69.643" height="41.518" />
  <text class="label" x="166.071" y="245.759" font-size="22.768">21</text>
  <rect class="box" x="220.982" y="225" width="69.643" height="41.518" />
  <text class="label" x="255.804" y="245.759" font-size="22.768">37</text>
  <rect class="box" x="387.054" y="225" width="69.643" height="41.518" />
  <text class="label" x="421.875" y="245.759" font-size="22.768">47</text>
  <rect class="box" x="483.482" y="225" width="100.446" height="41.518" />
  <text class="label" x="533.705" y="245.759" font-size="22.768">60   62</text>
  <rect class="box" x="609.375" y="225" width="69.643" height="41.518" />
  <text class="label" x="644.196" y="245.759" font-size="22.768">78</text>
  <line class="edge" x1="116.518" y1="179.464" x2="75" y2="225" />
  <line class="edge" x1="166.741" y1="179.464" x2="166.071" y2="225" />
  <line class="edge" x1="216.964" y1="179.464" x2="255.804" y2="225" />
  <line class="edge" x1="480.804" y1="179.464" x2="421.875" y2="225" />
  <line class="edge" x1="531.027" y1="179.464" x2="533.705" y2="225" />
  <line class="edge" x1="581.25" y1="179.464" x2="644.196" y2="225" />
</svg>
